<svg xmlns="http://www.w3.org/2000/svg" width="31.454" height="29.899" viewBox="0 0 31.454 29.899">
  <g id="Groupe_2727" data-name="Groupe 2727" transform="translate(0.501 0.5)">
    <path id="Tracé_1282" data-name="Tracé 1282" d="M334.4,271.208a2.917,2.917,0,0,1,2.844,2.241l.794,3.3h20.433a2.926,2.926,0,0,1,2.843,3.618l-2.4,9.875a2.918,2.918,0,0,1-2.842,2.234H342.988a2.918,2.918,0,0,1-2.843-2.234l-.838-3.442h0l-.015-.062-2.431-9.988h.025l-.73-3.033a1.8,1.8,0,0,0-1.753-1.381h-3.448v-1.123Zm6.833,18.763a1.8,1.8,0,0,0,1.752,1.377h13.083a1.8,1.8,0,0,0,1.752-1.377l2.4-9.875a1.8,1.8,0,0,0-1.752-2.23H338.312l1.489,6.179h14.665v1.123h-14.4l.328,1.363h0Z" transform="translate(-330.956 -271.208)" fill="#eb2426" stroke="#eb2426" stroke-linecap="round" stroke-linejoin="round" stroke-width="1"/>
    <path id="Tracé_1283" data-name="Tracé 1283" d="M686.05,763.1a3.086,3.086,0,1,1-3.086,3.086,3.086,3.086,0,0,1,3.086-3.086Zm0,5.05a1.964,1.964,0,1,0-1.964-1.964,1.964,1.964,0,0,0,1.964,1.964Z" transform="translate(-674.952 -740.373)" fill="#eb2426" stroke="#eb2426" stroke-width="1"/>
    <path id="Tracé_1284" data-name="Tracé 1284" d="M362.389,763.1a3.086,3.086,0,1,1-3.086,3.086,3.086,3.086,0,0,1,3.086-3.086Zm0,5.05a1.964,1.964,0,1,0-1.964-1.964,1.964,1.964,0,0,0,1.964,1.964Z" transform="translate(-336.339 -740.373)" fill="#eb2426" stroke="#eb2426" stroke-width="1"/>
  </g>
</svg>
