<svg xmlns="http://www.w3.org/2000/svg" width="12.296" height="26.461" viewBox="0 0 12.296 26.461">
  <g id="Groupe_2172" data-name="Groupe 2172" transform="translate(0 -0.009)">
    <path id="Tracé_1070" data-name="Tracé 1070" d="M335.788,736.685v12.8a.333.333,0,0,0,.334.333h4.751a.333.333,0,0,0,.334-.333v-13h3.445a.334.334,0,0,0,.332-.3l.331-3.917a.334.334,0,0,0-.332-.362h-3.776v-2.779a1.18,1.18,0,0,1,1.18-1.18h2.655a.334.334,0,0,0,.333-.334v-3.917a.334.334,0,0,0-.333-.334h-4.486a4.767,4.767,0,0,0-4.767,4.767V731.9h-2.376a.334.334,0,0,0-.334.334v3.918a.333.333,0,0,0,.334.333h2.376Z" transform="translate(-333.079 -723.348)" fill="#fff" fill-rule="evenodd"/>
  </g>
</svg>
