<svg id="Groupe_2411" data-name="Groupe 2411" xmlns="http://www.w3.org/2000/svg" width="28.716" height="28.717" viewBox="0 0 28.716 28.717">
  <g id="Groupe_2410" data-name="Groupe 2410">
    <g id="Groupe_2409" data-name="Groupe 2409">
      <path id="Tracé_1102" data-name="Tracé 1102" d="M833.685,161.753a1.683,1.683,0,1,0,1.683,1.683A1.683,1.683,0,0,0,833.685,161.753Z" transform="translate(-811.724 -156.625)" fill="#fff"/>
      <path id="Tracé_1103" data-name="Tracé 1103" d="M829.774,163.312a7.072,7.072,0,1,0,7.073,7.073,7.072,7.072,0,0,0-7.073-7.073Zm0,11.6a4.53,4.53,0,1,1,4.53-4.53,4.53,4.53,0,0,1-4.53,4.53Z" transform="translate(-815.299 -156.026)" fill="#fff"/>
      <path id="Tracé_1104" data-name="Tracé 1104" d="M837.444,186.766H825.979a8.635,8.635,0,0,1-8.625-8.626V166.675a8.635,8.635,0,0,1,8.625-8.626h11.466a8.635,8.635,0,0,1,8.625,8.626v11.464A8.635,8.635,0,0,1,837.444,186.766Zm-11.466-26.014a5.931,5.931,0,0,0-5.924,5.924V178.14a5.932,5.932,0,0,0,5.924,5.925h11.466a5.931,5.931,0,0,0,5.924-5.925V166.675a5.93,5.93,0,0,0-5.924-5.924Z" transform="translate(-817.354 -158.049)" fill="#fff"/>
    </g>
  </g>
</svg>
