<svg xmlns="http://www.w3.org/2000/svg" width="29.072" height="27.769" viewBox="0 0 29.072 27.769">
  <g id="Groupe_2178" data-name="Groupe 2178" transform="translate(-0.001)">
    <g id="Groupe_2176" data-name="Groupe 2176" transform="translate(0.407 8.605)">
      <g id="Groupe_2175" data-name="Groupe 2175">
        <g id="Groupe_2174" data-name="Groupe 2174">
          <path id="Tracé_1071" data-name="Tracé 1071" d="M527.131,742.31v10.277a.46.46,0,0,1-.46.46h-5.3a.46.46,0,0,1-.46-.46V743.03c0-2.515-.9-4.233-3.152-4.233a3.405,3.405,0,0,0-3.193,2.276,4.271,4.271,0,0,0-.206,1.517v10a.46.46,0,0,1-.46.46h-5.3a.458.458,0,0,1-.46-.46c.011-2.545.065-14.892.011-17.795a.457.457,0,0,1,.46-.465H513.9a.459.459,0,0,1,.46.459v2.194c-.012.02-.031.042-.041.061h.041v-.061a6.179,6.179,0,0,1,5.609-3.092c4.1,0,7.165,2.675,7.165,8.424Zm-28.2,10.737h5.3a.46.46,0,0,0,.46-.46v-17.8a.459.459,0,0,0-.46-.459h-5.3a.459.459,0,0,0-.459.459v17.8a.46.46,0,0,0,.455.459Z" transform="translate(-498.468 -733.886)" fill="#fff"/>
        </g>
      </g>
    </g>
    <g id="Groupe_2177" data-name="Groupe 2177">
      <path id="Tracé_1072" data-name="Tracé 1072" d="M504.708,728.274a3.331,3.331,0,1,1-3.331-3.332,3.331,3.331,0,0,1,3.331,3.332Z" transform="translate(-498.045 -724.942)" fill="#fff"/>
    </g>
  </g>
</svg>
