<svg xmlns="http://www.w3.org/2000/svg" width="33.035" height="27.298" viewBox="0 0 33.035 27.298">
  <g id="Twitter" transform="translate(0 -0.002)">
    <path id="Shape" d="M16.04,7.262l.072,1.181L14.918,8.3A19.413,19.413,0,0,1,3.557,2.708L1.981,1.141,1.575,2.3a6.955,6.955,0,0,0,1.48,7.133c.955,1.012.74,1.157-.907.554A2.815,2.815,0,0,0,1.026,9.72a8.634,8.634,0,0,0,.859,3.229,7.708,7.708,0,0,0,3.27,3.085l1.17.554-1.384.024c-1.337,0-1.384.024-1.241.53.477,1.566,2.363,3.229,4.464,3.952l1.48.506-1.289.771a13.439,13.439,0,0,1-6.4,1.783A7.068,7.068,0,0,0,0,24.347c0,.241,2.912,1.59,4.607,2.121a20.162,20.162,0,0,0,15.658-1.783,20.955,20.955,0,0,0,7.949-9.35,24.856,24.856,0,0,0,1.623-7.229c0-1.108.072-1.253,1.408-2.578a15.734,15.734,0,0,0,1.671-1.856c.239-.458.215-.458-1-.048-2.029.723-2.315.627-1.313-.458A7.01,7.01,0,0,0,32.224.587c0-.072-.358.048-.764.265a13.316,13.316,0,0,1-2.1.819l-1.289.41-1.17-.8A9.715,9.715,0,0,0,24.872.226a8.155,8.155,0,0,0-4.177.1A6.9,6.9,0,0,0,16.04,7.262Z" fill="#fff"/>
  </g>
</svg>
