<svg xmlns="http://www.w3.org/2000/svg" width="32.133" height="26.472" viewBox="0 0 32.133 26.472">
  <g id="Groupe_2171" data-name="Groupe 2171" transform="translate(0.004 0)">
    <g id="Groupe_2170" data-name="Groupe 2170">
      <g id="Groupe_2165" data-name="Groupe 2165">
        <path id="Tracé_1065" data-name="Tracé 1065" d="M304.044,729.94a13.206,13.206,0,0,1-3.246.927c.523-.087,1.294-1.034,1.6-1.417a5.975,5.975,0,0,0,1.081-1.969c.028-.056.049-.126-.007-.169a.184.184,0,0,0-.172.015,16.62,16.62,0,0,1-3.855,1.476.255.255,0,0,1-.266-.071,3.27,3.27,0,0,0-.338-.344,6.8,6.8,0,0,0-1.868-1.144,6.5,6.5,0,0,0-2.864-.462,6.847,6.847,0,0,0-2.717.767,7.015,7.015,0,0,0-2.193,1.79,6.741,6.741,0,0,0-1.31,2.623,7.11,7.11,0,0,0-.069,2.768c.021.155.008.176-.133.155-5.3-.788-9.685-2.683-13.248-6.744-.155-.176-.239-.176-.366.013-1.559,2.337-.8,6.092,1.146,7.938.259.246.526.491.814.717a6.767,6.767,0,0,1-2.556-.717c-.155-.1-.233-.042-.246.133a4.015,4.015,0,0,0,.042.759,6.793,6.793,0,0,0,4.186,5.415,3.909,3.909,0,0,0,.85.26,7.572,7.572,0,0,1-2.507.078c-.183-.034-.252.056-.183.232a7.055,7.055,0,0,0,5.268,4.412c.24.041.478.041.718.1-.014.022-.029.022-.042.042-.592.9-2.643,1.573-3.6,1.907a12.871,12.871,0,0,1-5.463.7c-.294-.043-.356-.04-.436,0s-.01.12.085.2c.372.247.751.464,1.138.675a18.025,18.025,0,0,0,3.652,1.462c6.564,1.812,13.957.48,18.886-4.416,3.87-3.846,5.226-9.148,5.226-14.458,0-.208.245-.323.391-.432A12.734,12.734,0,0,0,304,730.488a.777.777,0,0,0,.159-.513v-.028C304.165,729.855,304.175,729.882,304.044,729.94Z" transform="translate(-272.033 -726.768)" fill="#fff"/>
      </g>
      <g id="Groupe_2166" data-name="Groupe 2166" transform="translate(9.542 26.352)">
        <path id="Tracé_1066" data-name="Tracé 1066" d="M281.951,754.157Z" transform="translate(-281.95 -754.157)" fill="#fff" fill-rule="evenodd"/>
      </g>
      <g id="Groupe_2167" data-name="Groupe 2167" transform="translate(9.297 26.352)">
        <path id="Tracé_1067" data-name="Tracé 1067" d="M281.941,754.157Z" transform="translate(-281.696 -754.157)" fill="#fff" fill-rule="evenodd"/>
      </g>
      <g id="Groupe_2168" data-name="Groupe 2168" transform="translate(10.625 26.356)">
        <path id="Tracé_1068" data-name="Tracé 1068" d="M283.076,754.185c0-.054.569,0,0,0C283.076,754.157,283.145,754.185,283.076,754.185Z" transform="translate(-283.076 -754.161)" fill="#fff" fill-rule="evenodd"/>
      </g>
      <g id="Groupe_2169" data-name="Groupe 2169" transform="translate(21.856 0.039)">
        <path id="Tracé_1069" data-name="Tracé 1069" d="M294.883,726.809a.117.117,0,0,1-.134,0Z" transform="translate(-294.749 -726.809)" fill="#fff" fill-rule="evenodd"/>
      </g>
    </g>
  </g>
</svg>
