<svg id="WhatsApp" xmlns="http://www.w3.org/2000/svg" width="27.168" height="27.3" viewBox="0 0 27.168 27.3">
  <path id="Page-1" d="M0,27.3v0H0L1.918,20.29A13.528,13.528,0,1,1,13.64,27.065h-.005A13.546,13.546,0,0,1,7.17,25.419Zm7.5-4.33h0l.411.244a11.246,11.246,0,1,0-3.8-3.7l.268.425-1.136,4.15L7.5,22.969Zm9.654-2.935a4.248,4.248,0,0,1-1.308-.2,19.385,19.385,0,0,1-1.927-.712A14.623,14.623,0,0,1,8.207,14.1l-.06-.085a6.437,6.437,0,0,1-1.38-3.5A3.726,3.726,0,0,1,7.882,7.774L7.949,7.7a1.233,1.233,0,0,1,.9-.423c.217,0,.446,0,.648.012h.107c.209,0,.431.045.654.579.09.217.221.536.36.874l0,.009c.291.709.621,1.512.678,1.626a.618.618,0,0,1,.028.592l-.046.094a1.914,1.914,0,0,1-.291.47c-.057.066-.116.138-.174.209-.114.139-.232.282-.332.383-.163.163-.348.348-.148.69a10.133,10.133,0,0,0,1.88,2.342,8.779,8.779,0,0,0,2.5,1.578c.093.04.167.072.222.1a.836.836,0,0,0,.368.109.469.469,0,0,0,.364-.193c.156-.178.835-.972,1.07-1.326a.468.468,0,0,1,.4-.256,1.118,1.118,0,0,1,.363.087c.3.112,1.923.907,2.309,1.1l.186.091a1.088,1.088,0,0,1,.462.3,2.823,2.823,0,0,1-.2,1.607,3.469,3.469,0,0,1-2.282,1.607A5.508,5.508,0,0,1,17.156,20.034Z" transform="translate(0 0)" fill="#8d8a8a"/>
</svg>
