<svg xmlns="http://www.w3.org/2000/svg" width="26.809" height="26.8" viewBox="0 0 26.809 26.8">
  <g id="Groupe_2164" data-name="Groupe 2164" transform="translate(0.001 0)">
    <g id="Groupe_2163" data-name="Groupe 2163">
      <g id="Groupe_2161" data-name="Groupe 2161">
        <path id="Tracé_1063" data-name="Tracé 1063" d="M161.983,723.4a13.4,13.4,0,0,0-11.259,20.659l-2.035,4.483a1.17,1.17,0,0,0,1.375,1.613l5.608-1.539a13.4,13.4,0,1,0,6.311-25.216Zm0,24.456a11.055,11.055,0,0,1-5.568-1.5,1.161,1.161,0,0,0-.59-.16,1.182,1.182,0,0,0-.31.041l-3.664,1.006,1.276-2.811a1.172,1.172,0,0,0-.117-1.169,11.057,11.057,0,1,1,8.972,4.6Z" transform="translate(-148.585 -723.395)" fill="#fff" fill-rule="evenodd"/>
      </g>
      <g id="Groupe_2162" data-name="Groupe 2162" transform="translate(6.887 7.28)">
        <path id="Tracé_1064" data-name="Tracé 1064" d="M169.139,740.918a2.29,2.29,0,0,0-1.953-.439c-.507.207-.831,1-1.16,1.406a.487.487,0,0,1-.629.137,8.845,8.845,0,0,1-4.413-3.781.541.541,0,0,1,.068-.739,2.983,2.983,0,0,0,.8-1.3,2.846,2.846,0,0,0-.359-1.541,3.647,3.647,0,0,0-1.137-1.714,1.558,1.558,0,0,0-1.692.252,3.437,3.437,0,0,0-1.191,2.722,3.889,3.889,0,0,0,.108.863,7.138,7.138,0,0,0,.828,1.909,15.164,15.164,0,0,0,.865,1.316,13.362,13.362,0,0,0,3.752,3.483,11.359,11.359,0,0,0,2.34,1.113,5.2,5.2,0,0,0,2.723.43,3.3,3.3,0,0,0,2.469-1.837,1.591,1.591,0,0,0,.115-.937C170.535,741.615,169.661,741.231,169.139,740.918Z" transform="translate(-157.476 -732.794)" fill="#fff" fill-rule="evenodd"/>
      </g>
    </g>
  </g>
</svg>
